<?xml version="1.0" standalone="no"?>
<!DOCTYPE svg PUBLIC "-//W3C//DTD SVG 1.1//EN" "http://www.w3.org/Graphics/SVG/1.1/DTD/svg11.dtd">
<svg width="100%" height="100%" viewBox="0 0 13 13" version="1.1" xmlns="http://www.w3.org/2000/svg" xmlns:xlink="http://www.w3.org/1999/xlink" xml:space="preserve" style="fill-rule:evenodd;clip-rule:evenodd;stroke-linejoin:round;stroke-miterlimit:1.41421;">
    <path id="Shape" d="M12.63,10.942L9.56,7.872C10.023,7.112 10.29,6.218 10.29,5.263C10.29,2.487 7.884,0.082 5.107,0.082C2.331,0.081 0.081,2.332 0.081,5.108C0.081,7.884 2.487,10.29 5.263,10.29C6.186,10.29 7.05,10.038 7.794,9.604L10.88,12.692C11.182,12.994 11.672,12.994 11.974,12.692L12.74,11.926C13.041,11.624 12.932,11.243 12.63,10.942ZM1.628,5.108C1.628,3.186 3.186,1.628 5.107,1.628C7.03,1.628 8.743,3.34 8.743,5.263C8.743,7.185 7.184,8.743 5.263,8.743C3.34,8.743 1.628,7.03 1.628,5.108Z" style="fill:rgb(76,175,80);"/>
</svg>
