<?xml version="1.0" encoding="UTF-8" standalone="no"?>
<svg width="13px" height="13px" viewBox="0 0 13 13" version="1.1" xmlns="http://www.w3.org/2000/svg" xmlns:xlink="http://www.w3.org/1999/xlink" xmlns:sketch="http://www.bohemiancoding.com/sketch/ns">
    <!-- Generator: Sketch 3.3 (11970) - http://www.bohemiancoding.com/sketch -->
    <title>magnifying-glass</title>
    <desc>Created with Sketch.</desc>
    <defs></defs>
    <g id="Desktop" stroke="none" stroke-width="1" fill="none" fill-rule="evenodd" sketch:type="MSPage">
        <g id="02/Driving-Is-a-Privilege" sketch:type="MSArtboardGroup" transform="translate(-1196.000000, -32.000000)" fill="#B6B6B6">
            <g id="Top-Bar-Navigation" sketch:type="MSLayerGroup">
                <g id="Search-Bar" transform="translate(1196.000000, 32.000000)" sketch:type="MSShapeGroup">
                    <g id="magnifying-glass">
                        <path d="M12.6303125,10.9419375 L9.559875,7.8715 C10.023,7.1118125 10.2895,6.2180625 10.2895,5.263375 C10.2895,2.4870625 7.8836875,0.0820625 5.107375,0.0820625 C2.3310625,0.08125 0.08125,2.331875 0.08125,5.1081875 C0.08125,7.8836875 2.4870625,10.2895 5.2625625,10.2895 C6.186375,10.2895 7.0500625,10.0384375 7.7935,9.60375 L10.8801875,12.6920625 C11.1824375,12.9935 11.672375,12.9935 11.9738125,12.6920625 L12.74,11.925875 C13.0414375,11.6244375 12.93175,11.243375 12.6303125,10.9419375 L12.6303125,10.9419375 Z M1.62825,5.1081875 C1.62825,3.1858125 3.1858125,1.62825 5.107375,1.62825 C7.02975,1.62825 8.7425,3.3401875 8.7425,5.263375 C8.7425,7.1849375 7.184125,8.7433125 5.2625625,8.7433125 C3.3401875,8.7425 1.62825,7.02975 1.62825,5.1081875 L1.62825,5.1081875 Z" id="Shape"></path>
                    </g>
                </g>
            </g>
        </g>
    </g>
</svg>